<svg width="348" height="353" viewBox="0 0 348 353" fill="none" xmlns="http://www.w3.org/2000/svg">
<g clip-path="url(#clip0_601_2)">
<path d="M289.247 116.377C289.247 180.65 237.65 232.753 174 232.753C110.351 232.753 58.7533 180.65 58.7533 116.377C58.7533 52.1035 110.351 0 174 0C237.65 0 289.247 52.1035 289.247 116.377Z" fill="white"/>
<path d="M174 0C110.353 0 58.7533 52.2698 58.7533 116.743L58.7571 116.95L58.7533 117.156C58.7533 181.404 110.065 233.488 173.366 233.488L173.612 233.479L174 233.488C237.648 233.488 289.247 181.217 289.247 116.743C289.247 52.2698 237.648 0 174 0ZM281.564 116.743C281.564 126.06 280.404 135.099 278.237 143.727C277.234 143.026 274.583 145.922 273.93 142.085C273.112 137.321 267.811 134.014 264.957 136.29C262.103 138.567 253.947 145.186 253.543 149.327C253.132 153.463 249.663 158.429 248.038 154.919C246.402 151.401 241.517 140.431 241.715 137.535C241.914 134.64 239.465 138.571 235.806 132.776C232.134 126.982 225.815 131.944 220.717 129.048C215.619 126.149 209.911 122.219 207.053 120.981C204.206 119.736 212.151 132.566 213.172 130.912C214.198 129.258 218.27 132.154 219.496 132.154C220.721 132.154 223.979 135.049 221.943 137.742C219.907 140.435 201.763 151.619 199.927 148.708C198.083 145.797 187.288 123.254 185.448 124.635C183.612 126.017 196.869 149.533 199.112 150.98C201.348 152.432 208.082 151.191 211.34 149.743C214.605 148.295 204.613 165.885 200.338 167.955C196.058 170.021 192.593 176.438 194.422 179.333C196.258 182.229 196.462 193.199 192.593 194.65C188.713 196.094 187.288 198.37 188.51 201.063C189.727 203.749 185.659 208.298 183.823 211.197C181.983 214.092 174.853 220.093 174.238 221.75C173.631 223.408 164.865 222.992 161.392 222.992C157.931 222.992 160.578 218.645 160.167 214.925C159.767 211.197 156.709 207.679 156.709 205.819C156.709 203.955 155.684 199.608 154.262 197.542C152.837 195.468 152.422 191.537 153.851 189.265C155.284 186.984 156.298 180.369 153.452 177.47C150.593 174.574 147.328 169.605 149.575 165.675C151.819 161.744 147.128 162.161 143.256 160.293C139.38 158.429 131.428 160.915 127.352 161.538C123.272 162.157 119.2 160.503 117.975 158.429C116.753 156.362 114.102 151.191 111.386 149.945C108.678 148.708 110.23 143.326 111.859 141.26C113.496 139.193 110.23 135.259 111.859 133.597C113.496 131.944 114.51 125.947 117.771 124.635C121.036 123.328 120.422 122.429 120.522 119.324C120.625 116.218 124.19 116.218 124.797 114.564C125.412 112.907 127.244 112.082 130.925 112.082C134.593 112.082 140.805 109.906 143.763 109.182C146.721 108.458 151.819 107.424 151.408 110.323C151.001 113.218 151.104 116.526 153.037 116.526C154.977 116.526 157.627 117.666 160.685 119.596C163.743 121.522 163.843 119.946 164.254 117.771C164.665 115.595 168.941 116.424 173.366 118.495C177.792 120.565 183.827 119.113 185.755 118.911C187.695 118.697 188.513 112.805 188.003 110.84C187.488 108.875 184.434 111.77 182.498 110.529C180.561 109.291 177.907 110.84 175.975 109.077C174.035 107.322 173.727 103.182 175.975 103.081C178.214 102.975 179.34 102.252 180.661 100.703C181.99 99.1502 186.985 98.2201 188.921 99.7689C190.853 101.322 193.715 102.357 195.44 100.598C197.172 98.8428 191.982 95.43 190.853 94.496C189.731 93.5659 190.649 90.5656 189.531 90.5656C188.406 90.5656 187.488 91.0793 188.102 92.5309C188.713 93.9785 184.841 96.5623 184.222 95.1188C183.615 93.6671 182.597 90.877 181.069 90.877C179.543 90.877 177.504 97.9127 177.4 99.0492C177.296 100.189 174.645 102.049 172.51 102.049C170.374 102.049 170.374 104.536 171.492 105.676C172.613 106.813 171.795 111.365 169.759 111.626C167.719 111.891 167.005 111.159 166.701 109.397C166.398 107.641 164.358 107.848 164.254 104.225C164.15 100.602 161.907 98.8467 160.482 97.1889C159.056 95.5312 155.384 90.6707 153.959 92.8462C152.533 95.0214 159.056 99.6756 160.785 100.913C162.525 102.154 162.218 104.843 161.3 105.466C160.382 106.089 158.649 111.159 157.631 111.568C156.605 111.98 155.634 110.027 155.634 110.027C154.105 109.408 157.769 107.544 158.384 106.614C158.991 105.684 151.965 99.1658 150.697 97.3017C149.429 95.4379 144.013 98.8505 141.57 97.6131C139.123 96.3757 135.45 102.267 135.15 105.68C134.839 109.097 130.863 110.023 127.194 110.023C123.53 110.023 121.079 107.233 122.308 104.439C123.53 101.645 121.693 96.9905 123.837 96.6791C125.977 96.3718 132.085 96.6791 133.31 93.2663C134.532 89.8536 127.498 86.7483 130.256 86.1293C133.003 85.5068 137.29 81.1678 140.348 78.6812C143.398 76.1984 143.706 73.0969 146.456 72.8791C149.214 72.6651 145.849 67.505 148.296 65.9562C150.747 64.4035 151.354 71.5443 153.19 71.5443C155.027 71.5443 158.688 70.9217 161.749 72.4744C164.811 74.0271 165.725 70.9217 166.951 66.8824C168.172 62.8508 171.23 60.6754 177.342 57.5739C183.458 54.4686 170.316 58.504 167.865 55.3987C165.418 52.2933 168.783 45.4637 170.316 40.6423C171.845 35.8169 165.422 45.4637 162.057 50.4331C158.688 55.3987 162.975 57.57 162.664 60.9829C162.36 64.3997 156.863 68.431 156.863 68.431C154.416 68.7424 154.719 63.7769 153.498 61.6055C152.272 59.4341 150.129 60.3642 146.763 62.847C143.398 65.3295 143.095 56.9513 142.18 53.5346C141.27 50.1258 147.685 45.7751 150.701 43.4557C153.713 41.1286 158.688 29.9486 164.196 21.2629C169.705 12.5733 177.653 16.9161 179.793 20.3328C181.941 23.7417 187.434 21.5703 192.639 27.781C197.841 33.9878 191.414 36.7782 185.613 34.2565C179.793 31.7347 186.831 40.5061 190.188 42.9888C193.554 45.4678 195.39 37.4007 196.615 35.5405C197.837 33.6767 202.42 34.6106 205.781 29.6412C209.15 24.6757 216.791 25.6096 221.155 26.1545C225.523 26.7031 224.436 23.4344 221.685 20.7609C219.649 18.784 223.814 20.5157 228.715 22.94C260.342 41.903 281.564 76.8056 281.564 116.743ZM128.063 79.6658C127.049 78.6035 129.088 74.42 130.003 73.1788C130.925 71.9373 127.452 72.3499 127.663 74.1127C127.867 75.8676 126.334 78.5606 124.194 79.2844C122.054 80.0081 119.615 79.798 120.833 77.8329C122.051 75.8676 120.933 74.1089 120.015 72.2448C119.1 70.3807 125.109 69.2445 126.338 68.1081C127.559 66.9719 124.406 66.2441 124.502 64.4891C124.605 62.7263 125.32 61.1775 126.534 60.9712C127.759 60.7649 128.904 59.971 130.003 60.0411C133.372 60.2512 132.342 68.0069 133.571 70.4935C134.793 72.9724 138.262 75.9765 137.955 78.1441C137.647 80.3195 136.994 81.5608 134.497 80.9383C131.989 80.3157 127.974 84.1448 126.438 83.421C124.905 82.6934 129.088 80.7281 128.063 79.6658ZM106.097 36.1554C109.158 37.7042 111.598 34.8947 113.734 34.2916C116.265 33.5831 117.71 42.6736 115.266 42.3622C112.819 42.0511 110.069 47.3278 106.535 47.0164C102.997 46.7052 104.564 44.2263 100.588 40.5022C99.735 39.7005 99.3855 38.9767 99.3547 38.3424C100.204 37.5135 101.049 36.6808 101.929 35.8831C103.304 35.5134 104.937 35.5679 106.097 36.1554ZM201.759 192.362C204.613 191.743 204.064 186.241 206.653 185.949C212.158 185.33 206.857 200.845 204.821 205.192C202.781 209.539 201.959 209.329 200.019 206.64C198.071 203.955 198.701 199.604 200.019 197.538C201.333 195.464 198.901 192.985 201.759 192.362Z" fill="#92D2DF"/>
<path d="M286.987 118.689C286.987 182.996 236.396 232.83 174 232.83C111.604 232.83 61.0129 182.996 61.0129 118.689C61.0129 54.3239 111.661 2.25974 174 2.25974C236.339 2.25974 286.987 54.3239 286.987 118.689Z" stroke="#0A0A0A" stroke-opacity="0.8" stroke-width="7"/>
<path d="M221.454 97.1688C226.447 97.1688 230.493 92.6161 230.493 87C230.493 81.3839 226.447 76.8312 221.454 76.8312C216.462 76.8312 212.416 81.3839 212.416 87C212.416 92.6161 216.462 97.1688 221.454 97.1688Z" fill="#FD922A"/>
<path d="M260.34 35.7909L274.581 49.6924L261.635 66.1211L247.394 76.2314L238.333 71.1764L233.153 61.0661L240.922 52.2199L260.34 35.7909Z" fill="#FD922A"/>
<path fill-rule="evenodd" clip-rule="evenodd" d="M310.009 17.7544C310.57 18.303 310.886 19.0471 310.886 19.8228C310.886 20.5985 310.57 21.3423 310.007 21.8906C309.444 22.439 308.683 22.747 307.887 22.7468C307.094 22.7465 306.333 22.4381 305.77 21.8894L303.653 19.8219L293.061 30.1594L301.533 38.4321C301.82 38.7019 302.048 39.0246 302.204 39.3814C302.362 39.7382 302.446 40.1219 302.448 40.5101C302.453 40.8984 302.376 41.2834 302.224 41.6427C302.075 42.0022 301.852 42.3288 301.571 42.6033C301.289 42.8779 300.955 43.095 300.586 43.2419C300.218 43.389 299.825 43.4629 299.427 43.4598C299.029 43.4564 298.636 43.3757 298.27 43.2225C297.904 43.0691 297.574 42.8465 297.298 42.5672L293.061 38.4321L257.045 73.59C254.985 75.6021 252.366 76.9837 249.514 77.5654C246.66 78.1472 243.695 77.9041 240.981 76.8657L237.978 79.7953C237.234 80.5213 236.308 81.0435 235.291 81.3093C234.276 81.575 233.205 81.575 232.191 81.3093L225.269 88.0652C224.991 88.3369 224.661 88.5524 224.297 88.6995C223.934 88.8467 223.544 88.9223 223.151 88.9226C222.757 88.9226 222.368 88.8471 222.004 88.7002C221.641 88.5533 221.31 88.338 221.032 88.0666C220.753 87.795 220.533 87.4727 220.382 87.1179C220.231 86.7629 220.154 86.3826 220.153 85.9987C220.153 85.6145 220.231 85.2342 220.381 84.8792C220.532 84.5244 220.752 84.202 221.03 83.9301L227.954 77.1717C227.682 76.1797 227.682 75.1354 227.956 74.1439C228.227 73.1521 228.763 72.2482 229.508 71.5226L232.507 68.5933C231.443 65.944 231.192 63.0492 231.788 60.2634C232.383 57.4778 233.797 54.9223 235.86 52.9098L271.876 17.7518L267.637 13.6168C267.359 13.3451 267.137 13.0226 266.988 12.6676C266.837 12.3126 266.76 11.9322 266.76 11.548C266.76 11.1638 266.837 10.7833 266.988 10.4284C267.137 10.0734 267.359 9.75087 267.637 9.47921C267.915 9.20752 268.247 8.99203 268.611 8.84499C268.975 8.69797 269.363 8.62229 269.757 8.62229C270.15 8.62229 270.541 8.69797 270.904 8.84499C271.268 8.99203 271.598 9.20752 271.876 9.47921L280.348 17.7518L290.939 7.41421L288.824 5.34668C288.544 5.07518 288.325 4.75282 288.173 4.398C288.022 4.0432 287.945 3.66288 287.945 3.2788C287.945 2.89471 288.022 2.51435 288.173 2.15945C288.323 1.80455 288.544 1.48205 288.822 1.21038C289.1 0.938702 289.43 0.723164 289.794 0.576068C290.157 0.428975 290.546 0.353206 290.939 0.353089C291.335 0.352971 291.723 0.428507 292.087 0.575384C292.451 0.722262 292.781 0.937604 293.059 1.20911L310.009 17.7544ZM284.013 21.3258L294.602 10.9881L299.987 16.2454L289.398 26.5831L284.013 21.3258ZM275.537 21.3258L289.4 34.8581L277.993 45.9945L264.13 32.4621L275.537 21.3258ZM273.754 50.1321L267.4 56.3346L262.586 51.636C262.308 51.3643 261.976 51.149 261.615 51.0021C261.251 50.8552 260.86 50.7797 260.467 50.78C260.074 50.78 259.685 50.8559 259.321 51.0028C258.957 51.1499 258.627 51.3655 258.349 51.6371C258.071 51.9089 257.85 52.2314 257.699 52.5862C257.549 52.9412 257.473 53.3215 257.473 53.7057C257.473 54.0898 257.549 54.4701 257.701 54.8249C257.85 55.1797 258.071 55.5019 258.349 55.7735L263.16 60.4722L258.926 64.6073L254.115 59.9059C253.834 59.6343 253.504 59.4187 253.141 59.2719C252.777 59.1247 252.388 59.049 251.995 59.049C251.602 59.049 251.211 59.1247 250.847 59.2719C250.483 59.4187 250.153 59.6343 249.875 59.9059C249.597 60.1778 249.376 60.5002 249.225 60.8553C249.075 61.2103 248.996 61.5906 248.996 61.9747C248.996 62.3591 249.075 62.7394 249.225 63.0944C249.376 63.4494 249.597 63.7719 249.875 64.0435L254.689 68.7422L253.385 70.0162C252.033 71.3337 250.321 72.238 248.452 72.6183C246.583 72.9986 244.642 72.8382 242.866 72.1569L237.327 66.7507C236.629 65.0163 236.466 63.1211 236.857 61.2975C237.246 59.4736 238.172 57.8005 239.523 56.4838L259.893 36.5997L273.754 50.1321ZM233.097 75.1775C233.117 75.149 233.142 75.1219 233.167 75.0966L235.3 73.0138C235.664 73.4079 236.048 73.7823 236.452 74.136L234.319 76.2213C234.292 76.2466 234.265 76.2694 234.236 76.2895C233.967 75.8242 233.574 75.4396 233.097 75.1775Z" fill="black"/>
<path d="M21.21 326.261C15.5998 326.261 11.3349 325.145 8.41533 322.912C5.55299 320.68 4.12183 317.76 4.12183 314.154C4.12183 312.436 4.66568 311.062 5.75336 310.032C6.84104 308.945 8.35809 308.4 10.3045 308.4C10.419 310.748 10.8769 312.981 11.6784 315.098C12.4799 317.159 13.7107 318.847 15.3708 320.165C17.031 321.423 19.2063 322.054 21.8969 322.054C25.7324 322.054 28.7379 321.138 30.9133 319.306C33.0888 317.417 34.1764 314.725 34.1764 311.234C34.1764 309.117 33.747 307.34 32.8883 305.91C32.0868 304.421 30.7129 303.047 28.7666 301.788C26.8774 300.53 24.2441 299.212 20.8665 297.838C15.5426 295.662 11.5639 293.115 8.93055 290.196C6.35445 287.276 5.0664 283.469 5.0664 278.775C5.0664 275.512 5.86786 272.735 7.47076 270.446C9.13092 268.098 11.3635 266.324 14.1686 265.122C17.031 263.863 20.2654 263.233 23.872 263.233C28.967 263.233 32.917 264.207 35.722 266.152C38.527 268.098 39.9297 270.33 39.9297 272.85C39.9297 274.683 39.2999 276.084 38.0405 277.058C36.8383 277.973 35.2068 278.432 33.1459 278.432C33.1459 276.658 32.8311 274.94 32.2014 273.279C31.629 271.619 30.627 270.245 29.1959 269.158C27.822 268.071 25.9328 267.526 23.5285 267.526C20.2082 267.526 17.6321 268.414 15.8002 270.188C13.9683 271.962 13.0523 274.339 13.0523 277.315C13.0523 279.604 13.453 281.552 14.2545 283.155C15.1132 284.7 16.5158 286.103 18.4621 287.362C20.4085 288.564 23.042 289.852 26.3622 291.226C31.3998 293.287 35.3214 295.662 38.1264 298.354C40.9314 301.045 42.334 304.593 42.334 309.001C42.334 314.441 40.4162 318.675 36.5807 321.71C32.8024 324.745 27.6789 326.261 21.21 326.261ZM64.312 326.261C60.4766 326.261 57.2994 325.145 54.7805 322.912C52.2618 320.68 51.0022 317.216 51.0022 312.522C51.0022 307.942 52.6052 304.566 55.8109 302.389C59.074 300.213 63.9973 299.011 70.5806 298.783L77.7078 298.525V293.373C77.7078 291.312 77.536 289.509 77.1926 287.963C76.8491 286.361 76.105 285.1 74.9599 284.185C73.8152 283.27 72.0691 282.811 69.7219 282.811C67.5466 282.811 65.8864 283.211 64.7414 284.013C63.5966 284.815 62.8238 285.932 62.4229 287.362C62.0794 288.736 61.9077 290.338 61.9077 292.171C59.5033 292.171 57.6716 291.771 56.412 290.969C55.2098 290.11 54.6087 288.707 54.6087 286.761C54.6087 284.757 55.2957 283.155 56.6696 281.952C58.1009 280.75 59.9901 279.891 62.337 279.376C64.6842 278.805 67.2603 278.518 70.0653 278.518C75.3321 278.518 79.2534 279.634 81.8295 281.866C84.463 284.099 85.7796 287.934 85.7796 293.373V315.613C85.7796 318.018 86.1805 319.649 86.9818 320.508C87.7833 321.367 89.1572 321.796 91.1035 321.796H91.3611V325.403H79.7687L78.3947 318.018H77.7078C76.5056 319.62 75.3321 321.053 74.1871 322.311C73.0423 323.513 71.6969 324.487 70.1512 325.231C68.6629 325.918 66.7164 326.261 64.312 326.261ZM66.2871 320.937C69.7793 320.937 72.5556 319.878 74.6165 317.76C76.6773 315.584 77.7078 312.664 77.7078 309.001V302.046L72.2121 302.304C67.3462 302.532 63.9686 303.535 62.0794 305.309C60.2477 307.026 59.3316 309.573 59.3316 312.951C59.3316 318.275 61.6501 320.937 66.2871 320.937ZM97.4129 325.403V321.796H98.5293C100.476 321.796 102.136 321.453 103.51 320.766C104.884 320.022 105.571 318.305 105.571 315.613V283.412H97.7564V279.376H105.571V275.083C105.571 269.987 106.916 266.096 109.607 263.404C112.354 260.657 116.075 259.283 120.77 259.283C125.235 259.283 128.355 259.854 130.129 261C131.904 262.087 132.791 263.52 132.791 265.294C132.791 266.839 132.133 268.041 130.816 268.9C129.5 269.702 127.811 270.102 125.75 270.102C125.75 268.385 125.349 266.81 124.548 265.379C123.747 263.949 122.258 263.233 120.083 263.233C117.621 263.233 115.932 264.177 115.016 266.066C114.1 267.955 113.642 270.703 113.642 274.31V279.376H125.75V283.412H113.642V315.613C113.642 318.305 114.329 320.022 115.703 320.766C117.077 321.453 118.737 321.796 120.684 321.796H123.947V325.403H97.4129ZM151.437 326.261C145.197 326.261 140.303 324.2 136.754 320.079C133.261 315.957 131.516 310.174 131.516 302.733C131.516 294.718 133.176 288.68 136.496 284.614C139.816 280.549 144.51 278.518 150.579 278.518C156.132 278.518 160.482 280.235 163.631 283.67C166.837 287.105 168.44 292.227 168.44 299.04V302.991H139.845C139.959 309.23 141.076 313.781 143.194 316.644C145.369 319.448 148.518 320.851 152.64 320.851C155.616 320.851 158.135 320.25 160.196 319.048C162.314 317.79 163.889 316.386 164.919 314.841C165.32 315.012 165.692 315.356 166.035 315.871C166.379 316.386 166.551 317.017 166.551 317.76C166.551 318.906 166.007 320.135 164.919 321.453C163.831 322.77 162.171 323.913 159.939 324.887C157.706 325.803 154.872 326.261 151.437 326.261ZM159.767 298.354C159.767 293.773 159.051 290.11 157.62 287.362C156.246 284.558 153.842 283.155 150.407 283.155C147.258 283.155 144.797 284.472 143.022 287.105C141.305 289.681 140.303 293.43 140.017 298.354H159.767ZM185.627 325.403V321.796H187.602C189.491 321.796 191.123 321.482 192.497 320.851C193.928 320.165 194.643 318.562 194.643 316.043V268.385H186.4C183.881 268.385 182.135 269.101 181.162 270.532C180.189 271.906 179.588 273.537 179.359 275.426L178.929 279.119H174.464L174.893 264.091H223.238L223.668 279.119H219.202L218.773 275.426C218.544 273.537 217.943 271.906 216.97 270.532C215.996 269.101 214.222 268.385 211.646 268.385H203.316V315.613C203.316 318.305 204.003 320.022 205.377 320.766C206.751 321.453 208.411 321.796 210.358 321.796H212.333V325.403H185.627ZM228.243 325.403V321.796H228.5C230.446 321.796 232.107 321.453 233.481 320.766C234.855 320.022 235.542 318.305 235.542 315.613V288.822C235.542 286.302 234.825 284.7 233.395 284.013C232.021 283.326 230.39 282.983 228.5 282.983H228.243V279.376H241.467L243.098 287.877H243.528C244.271 286.16 245.073 284.585 245.932 283.155C246.791 281.724 247.937 280.608 249.367 279.806C250.797 278.947 252.772 278.518 255.292 278.518C258.44 278.518 260.758 279.062 262.247 280.149C263.793 281.236 264.566 282.782 264.566 284.786C264.566 286.56 263.935 288.02 262.677 289.165C261.475 290.311 259.443 290.883 256.58 290.883C256.58 288.535 256.237 286.847 255.55 285.816C254.863 284.73 253.69 284.185 252.029 284.185C250.427 284.185 249.08 284.815 247.993 286.074C246.906 287.333 246.047 288.937 245.417 290.883C244.786 292.828 244.33 294.862 244.043 296.98C243.756 299.04 243.614 300.9 243.614 302.561V316.043C243.614 318.562 244.301 320.165 245.675 320.851C247.105 321.482 248.766 321.796 250.655 321.796H253.059V325.403H228.243ZM279.654 270.789C278.28 270.789 277.105 270.389 276.134 269.587C275.216 268.785 274.76 267.411 274.76 265.465C274.76 263.461 275.216 262.087 276.134 261.343C277.105 260.541 278.28 260.141 279.654 260.141C280.969 260.141 282.115 260.541 283.089 261.343C284.061 262.087 284.549 263.461 284.549 265.465C284.549 267.411 284.061 268.785 283.089 269.587C282.115 270.389 280.969 270.789 279.654 270.789ZM267.804 325.403V321.796H268.92C270.81 321.796 272.441 321.482 273.815 320.851C275.245 320.165 275.962 318.562 275.962 316.043V288.822C275.962 286.302 275.245 284.7 273.815 284.013C272.441 283.326 270.81 282.983 268.92 282.983H268.663V279.376H284.034V315.613C284.034 318.305 284.721 320.022 286.095 320.766C287.468 321.453 289.127 321.796 291.075 321.796H292.191V325.403H267.804ZM294.88 346.011V342.405H295.567C297.513 342.405 299.174 342.032 300.548 341.289C301.922 340.602 302.609 338.914 302.609 336.222V288.822C302.609 286.302 301.892 284.7 300.462 284.013C299.088 283.326 297.456 282.983 295.567 282.983H294.451V279.376H309.478L310.337 287.105H310.68C311.996 284.472 313.686 282.382 315.747 280.836C317.808 279.29 320.497 278.518 323.819 278.518C329.486 278.518 333.807 280.436 336.785 284.271C339.818 288.049 341.336 294.06 341.336 302.304C341.336 310.604 339.818 316.673 336.785 320.508C333.807 324.343 329.486 326.261 323.819 326.261C320.497 326.261 317.778 325.574 315.661 324.2C313.6 322.77 311.939 320.937 310.68 318.705H310.337C310.45 320.366 310.536 322.14 310.595 324.029C310.651 325.861 310.68 327.321 310.68 328.408V336.652C310.68 339.171 311.367 340.744 312.741 341.374C314.172 342.061 315.833 342.405 317.722 342.405H317.979V346.011H294.88ZM322.445 320.766C326.223 320.766 328.912 319.191 330.516 316.043C332.175 312.836 333.007 308.229 333.007 302.218C333.007 296.092 332.175 291.54 330.516 288.564C328.912 285.529 326.194 284.013 322.359 284.013C317.894 284.013 314.829 285.529 313.171 288.564C311.51 291.54 310.68 296.121 310.68 302.304C310.68 308.258 311.51 312.836 313.171 316.043C314.829 319.191 317.921 320.766 322.445 320.766Z" fill="black"/>
</g>
<defs>
<clipPath id="clip0_601_2">
<rect width="348" height="352.519" fill="white"/>
</clipPath>
</defs>
</svg>
