<svg width="3036" height="492" viewBox="0 0 3036 492" fill="none" xmlns="http://www.w3.org/2000/svg">
<g clip-path="url(#clip0_185_14)">
<path d="M79.7141 475.108C50.3563 466.497 23.1778 451.709 0 431.734L25.4027 378.125C46.0528 395.961 69.9647 409.621 95.8143 418.35C124.124 428.604 154.006 433.836 184.115 433.81C223.9 433.81 253.668 427.034 273.418 413.483C282.566 407.811 290.09 399.865 295.256 390.42C300.423 380.975 303.056 370.353 302.899 359.588C303.188 352.128 301.904 344.691 299.13 337.761C296.356 330.831 292.155 324.562 286.799 319.363C275.376 308.684 261.78 300.602 246.942 295.672C231.151 290.185 208.826 284.006 179.965 277.135C150.222 270.381 120.962 261.653 92.3795 251.01C70.2844 242.508 50.6234 228.693 35.1343 210.785C19.2964 192.749 11.4014 168.366 11.4491 137.636C11.1416 112.994 18.1927 88.8209 31.6997 68.21C46.9972 46.1451 68.342 28.9704 93.1667 18.752C125.616 5.43695 160.508 -0.879621 195.564 0.214602C223.858 0.190548 252.031 3.89644 279.357 11.2368C304.612 17.5322 328.566 28.2157 350.126 42.8008L327.443 97.7701C307.461 85.0454 285.779 75.2137 263.042 68.5677C241.173 62.1165 218.507 58.7675 195.707 58.6188C156.78 58.6188 127.585 65.7762 108.122 80.091C99.0603 86.0929 91.6426 94.2656 86.5437 103.866C81.4448 113.466 78.8265 124.189 78.9271 135.06C78.6619 142.538 79.9924 149.987 82.8303 156.91C85.6681 163.834 89.948 170.073 95.385 175.213C107.178 185.993 121.096 194.185 136.244 199.262C158.012 206.528 180.155 212.621 202.577 217.513C232.207 224.221 261.349 232.925 289.804 243.566C311.584 252.18 331.008 265.844 346.477 283.433C362.267 301.327 370.162 325.375 370.162 355.579C370.353 380.146 363.174 404.205 349.554 424.649C334.053 446.926 312.322 464.131 287.085 474.106C254.342 487.158 219.276 493.369 184.043 492.357C148.564 492.282 113.331 486.457 79.7141 475.108Z" fill="black"/>
<path d="M887.729 486.489L887.013 135.776L713.274 427.798H681.646L507.835 138.281V486.632H441.932V5.65381H498.247L698.605 343.698L896.459 5.65381H952.702L953.418 486.632L887.729 486.489Z" fill="black"/>
<path d="M2640.22 5.51135L2429.34 486.489H2361.37L2149.77 5.51135H2223.98L2397.07 400.6L2571.53 5.51135H2640.22Z" fill="black"/>
<path d="M3036 426.724V486.489H2687.02V5.51135H3026.41V65.2755H2755.93V213.004H2997.07V271.409H2755.93V426.724H3036Z" fill="black"/>
<path d="M1454.53 67.1365C1501.97 67.1365 1547.48 85.9885 1581.03 119.545C1614.57 153.102 1633.42 198.615 1633.42 246.072C1633.42 293.528 1614.57 339.041 1581.03 372.598C1547.48 406.155 1501.97 425.007 1454.53 425.007H1273.06C1225.62 425.007 1180.12 406.155 1146.57 372.598C1113.02 339.041 1094.17 293.528 1094.17 246.072C1094.17 198.615 1113.02 153.102 1146.57 119.545C1180.12 85.9885 1225.62 67.1365 1273.06 67.1365H1454.53ZM1454.53 2.71985H1273.06C1208.54 2.71985 1146.66 28.3587 1101.03 73.996C1055.4 119.633 1029.77 181.531 1029.77 246.072C1029.77 310.613 1055.4 372.51 1101.03 418.147C1146.66 463.785 1208.54 489.423 1273.06 489.423H1454.53C1519.05 489.423 1580.94 463.785 1626.56 418.147C1672.19 372.51 1697.82 310.613 1697.82 246.072C1697.82 181.531 1672.19 119.633 1626.56 73.996C1580.94 28.3587 1519.05 2.71985 1454.53 2.71985Z" fill="black"/>
<path d="M1890.09 67.1365C1937.54 67.1365 1983.04 85.9885 2016.59 119.545C2050.14 153.102 2068.98 198.615 2068.98 246.072C2068.98 293.528 2050.14 339.041 2016.59 372.598C1983.04 406.155 1937.54 425.007 1890.09 425.007H1708.27C1660.82 425.007 1615.32 406.155 1581.77 372.598C1548.22 339.041 1529.38 293.528 1529.38 246.072C1529.38 198.615 1548.22 153.102 1581.77 119.545C1615.32 85.9885 1660.82 67.1365 1708.27 67.1365H1890.09ZM1890.09 2.71985H1708.27C1643.74 2.71985 1581.86 28.3587 1536.23 73.996C1490.61 119.633 1464.98 181.531 1464.98 246.072C1464.98 310.613 1490.61 372.51 1536.23 418.147C1581.86 463.785 1643.74 489.423 1708.27 489.423H1890.09C1954.62 489.423 2016.5 463.785 2062.13 418.147C2107.75 372.51 2133.39 310.613 2133.39 246.072C2133.39 181.531 2107.75 119.633 2062.13 73.996C2016.5 28.3587 1954.62 2.71985 1890.09 2.71985Z" fill="black"/>
</g>
<defs>
<clipPath id="clip0_185_14">
<rect width="3036" height="492" fill="white"/>
</clipPath>
</defs>
</svg>
